<?xml version="1.0" standalone="no"?>
<!DOCTYPE svg PUBLIC "-//W3C//DTD SVG 20010904//EN"
 "http://www.w3.org/TR/2001/REC-SVG-20010904/DTD/svg10.dtd">
<svg version="1.0" xmlns="http://www.w3.org/2000/svg"
 width="1024.000000pt" height="1024.000000pt" viewBox="0 0 1024.000000 1024.000000"
 preserveAspectRatio="xMidYMid meet">

<g transform="translate(0.000000,1024.000000) scale(0.100000,-0.100000)"
fill="#000000" stroke="none">
<path d="M6599 7017 c-88 -46 -135 -159 -105 -248 l15 -43 -71 -83 c-39 -46
-74 -85 -77 -88 -4 -2 -47 23 -95 55 -437 292 -998 398 -1541 289 -188 -37
-432 -132 -612 -237 -321 -188 -619 -518 -786 -872 -196 -417 -230 -938 -91
-1397 210 -695 810 -1228 1532 -1362 270 -51 521 -49 773 4 412 87 735 261
1029 555 304 304 470 622 552 1059 29 155 32 474 5 628 -73 424 -266 803 -551
1083 -31 30 -56 58 -56 63 0 5 32 49 71 98 64 80 75 89 105 89 49 0 125 28
156 57 87 82 89 229 4 315 -63 63 -175 78 -257 35z m-1290 -977 c35 -5 65 -11
68 -14 3 -2 -13 -28 -35 -58 -22 -29 -55 -82 -74 -117 -29 -57 -33 -76 -36
-155 -4 -87 -2 -94 30 -156 80 -154 242 -199 415 -115 71 35 115 78 241 230
l32 40 41 -45 c100 -109 189 -299 225 -479 23 -117 15 -342 -16 -461 -95 -358
-344 -627 -694 -749 -626 -219 -1297 168 -1420 819 -32 165 -17 359 39 528
102 303 311 530 605 654 180 77 391 106 579 78z m354 -121 c72 -36 117 -67
117 -79 0 -14 -146 -185 -186 -218 -102 -85 -206 6 -145 127 21 40 138 201
146 201 3 0 34 -14 68 -31z"/>
</g>
</svg>
